Coordinates
version=1
nRows=60
nColumns=12
inDegrees=yes

Units are S.I. units (second, meters, Newtons, ...)
Angles are in degrees

endheader
time	SC_y	SC_z	SC_x	AC_y	AC_z	AC_x	GH_y	GH_z	GH_yy	EL_x	PS_y
       0.0               -25.3          6.154          25.71          58.07          -3.99         -12.43          48.93          87.93          45.46          96.01          134.9
  0.004739              -25.29          6.158          25.71          58.07         -3.992         -12.43          48.92          87.92          45.43          96.01          134.9
  0.009478              -25.29          6.161          25.71          58.07         -3.993         -12.42           48.9          87.92          45.39          96.02          134.9
   0.01422              -25.29          6.165          25.71          58.07         -3.995         -12.42          48.88          87.92          45.36          96.02          134.9
   0.01896              -25.29          6.169          25.71          58.07         -3.996         -12.41          48.85          87.92          45.32          96.02          134.9
   0.02369              -25.28          6.174          25.71          58.07         -3.998         -12.41          48.83          87.91          45.28          96.02          134.8
   0.02843              -25.28          6.178          25.71          58.07           -4.0          -12.4           48.8          87.91          45.23          96.02          134.8
   0.03317              -25.28          6.183          25.71          58.07         -4.002          -12.4          48.78          87.91          45.19          96.03          134.8
   0.03791              -25.28          6.189          25.71          58.07         -4.004         -12.39          48.75           87.9          45.14          96.03          134.8
   0.04265              -25.27          6.194           25.7          58.07         -4.006         -12.39          48.72           87.9          45.08          96.03          134.8
   0.04739              -25.27          6.201           25.7          58.07         -4.009         -12.38          48.68          87.89          45.03          96.03          134.8
   0.05213              -25.27          6.207           25.7          58.07         -4.011         -12.37          48.65          87.89          44.96          96.04          134.7
   0.05687              -25.26          6.214           25.7          58.07         -4.014         -12.36          48.61          87.89           44.9          96.04          134.7
    0.0616              -25.26          6.222           25.7          58.07         -4.017         -12.36          48.57          87.88          44.82          96.05          134.7
   0.06634              -25.25          6.231           25.7          58.07         -4.021         -12.35          48.52          87.87          44.75          96.05          134.7
   0.07108              -25.25           6.24           25.7          58.07         -4.024         -12.34          48.47          87.87          44.66          96.05          134.6
   0.07582              -25.24           6.25          25.69          58.08         -4.028         -12.33          48.42          87.86          44.57          96.06          134.6
   0.08056              -25.24           6.26          25.69          58.08         -4.032         -12.31          48.36          87.85          44.47          96.06          134.6
    0.0853              -25.23          6.272          25.69          58.08         -4.037          -12.3          48.29          87.85          44.36          96.07          134.5
   0.09004              -25.22          6.285          25.69          58.08         -4.042         -12.29          48.23          87.84          44.24          96.08          134.5
   0.09478              -25.22          6.299          25.69          58.08         -4.048         -12.27          48.15          87.83          44.11          96.08          134.5
   0.09951              -25.21          6.315          25.68          58.08         -4.054         -12.25          48.06          87.82          43.96          96.09          134.4
    0.1043               -25.2          6.332          25.68          58.08         -4.061         -12.24          47.97           87.8           43.8           96.1          134.4
     0.109              -25.19          6.351          25.68          58.08         -4.068         -12.22          47.87          87.79          43.62          96.11          134.3
    0.1137              -25.18          6.372          25.67          58.09         -4.076         -12.19          47.75          87.78          43.43          96.12          134.3
    0.1185              -25.16          6.396          25.67          58.09         -4.086         -12.17          47.62          87.76          43.21          96.13          134.2
    0.1232              -25.15          6.422          25.66          58.09         -4.096         -12.14          47.48          87.74          42.96          96.14          134.1
    0.1279              -25.13          6.452          25.66          58.09         -4.108         -12.11          47.32          87.72          42.68          96.16          134.0
    0.1327              -25.12          6.485          25.65           58.1         -4.121         -12.07          47.14           87.7          42.37          96.17          133.9
    0.1374               -25.1          6.524          25.65           58.1         -4.136         -12.03          46.93          87.67          42.01          96.19          133.8
    0.1422              -25.07          6.567          25.64           58.1         -4.154         -11.98          46.69          87.64           41.6          96.21          133.7
    0.1469              -25.04          6.617          25.63          58.11         -4.173         -11.92          46.42          87.61          41.14          96.24          133.5
    0.1516              -25.01          6.675          25.62          58.11         -4.196         -11.86          46.11          87.57           40.6          96.27          133.4
    0.1564              -24.98          6.742          25.61          58.12         -4.223         -11.79          45.75          87.52          39.97           96.3          133.2
    0.1611              -24.93           6.82          25.59          58.12         -4.254          -11.7          45.32          87.47          39.24          96.34          132.9
    0.1659              -24.88          6.913          25.57          58.13          -4.29          -11.6          44.82           87.4          38.38          96.38          132.7
    0.1706              -24.82          7.023          25.55          58.14         -4.334         -11.48          44.22          87.33          37.35          96.44          132.3
    0.1753              -24.75          7.155          25.53          58.15         -4.386         -11.34          43.51          87.24          36.12           96.5          132.0
    0.1801              -24.67          7.314           25.5          58.17         -4.449         -11.17          42.64          87.13          34.63          96.58          131.5
    0.1848              -24.56          7.509          25.47          58.18         -4.526         -10.95          41.59          86.99          32.82          96.67          130.9
    0.1896              -24.43          7.749          25.42           58.2         -4.621         -10.69          40.28          86.83          30.57          96.79          130.2
    0.1943              -24.27          8.049          25.37          58.23         -4.739         -10.36          38.66          86.62          27.78          96.94          129.3
     0.199              -24.06          8.427           25.3          58.26         -4.888         -9.952          36.61          86.36          24.25          97.12          128.2
    0.2038               -23.8          8.907          25.21           58.3         -5.078         -9.429          34.01          86.03          19.77          97.35          126.8
    0.2085              -23.47          9.521           25.1          58.36         -5.321         -8.759          30.67          85.61          14.04          97.65          125.0
    0.2132              -23.04          10.31          24.96          58.43         -5.632           -7.9           26.4          85.06          6.679          98.04          122.7
     0.218               -22.5          11.32          24.78          58.51          -6.03         -6.802          20.93          84.37          -2.72          98.53          119.7
    0.2227              -21.81          12.58          24.55          58.62         -6.531         -5.421          14.06           83.5         -14.54          99.15          116.0
    0.2275              -20.97          14.13          24.27          58.76         -7.141         -3.739          5.694          82.43         -28.94           99.9          111.5
    0.2322               -20.0          15.92          23.94          58.91         -7.847         -1.789         -4.008           81.2         -45.63          100.8          106.3
    0.2369              -18.95          17.85          23.59          59.08         -8.613         0.3228         -14.51          79.87         -63.71          101.7          100.6
    0.2417               -17.9          19.79          23.24          59.25         -9.378          2.434         -25.02          78.53         -81.79          102.7          94.89
    0.2464              -16.93          21.58          22.92           59.4         -10.09          4.384         -34.72           77.3         -98.48          103.5          89.64
    0.2512              -16.09          23.12          22.64          59.53         -10.69          6.067         -43.09          76.23         -112.9          104.3          85.11
    0.2559              -15.41          24.39          22.41          59.64          -11.2          7.447         -49.96          75.36         -124.7          104.9           81.4
    0.2606              -14.86           25.4          22.23          59.73         -11.59          8.545         -55.42          74.67         -134.1          105.4          78.44
    0.2654              -14.43          26.19          22.08           59.8          -11.9          9.405          -59.7          74.12         -141.5          105.8          76.13
    0.2701               -14.1           26.8          21.97          59.85         -12.15          10.07         -63.03           73.7         -147.2          106.1          74.33
    0.2749              -13.84          27.28          21.89          59.89         -12.34           10.6         -65.64          73.37         -151.7          106.3          72.92
    0.2796              -13.63          27.66          21.82          59.93         -12.49          11.01         -67.69          73.11         -155.2          106.5          71.81
